<svg id="visual" viewBox="0 0 1920 1098" width="1920" height="1098" xmlns="http://www.w3.org/2000/svg" xmlns:xlink="http://www.w3.org/1999/xlink" version="1.1"><path d="M0 177L29.2 178.8C58.3 180.7 116.7 184.3 174.8 175.2C233 166 291 144 349.2 138.5C407.3 133 465.7 144 523.8 138.5C582 133 640 111 698.2 107.3C756.3 103.7 814.7 118.3 872.8 114.7C931 111 989 89 1047.2 83.5C1105.3 78 1163.7 89 1221.8 109.2C1280 129.3 1338 158.7 1396.2 153.2C1454.3 147.7 1512.7 107.3 1570.8 100C1629 92.7 1687 118.3 1745.2 120.2C1803.3 122 1861.7 100 1890.8 89L1920 78L1920 0L1890.8 0C1861.7 0 1803.3 0 1745.2 0C1687 0 1629 0 1570.8 0C1512.7 0 1454.3 0 1396.2 0C1338 0 1280 0 1221.8 0C1163.7 0 1105.3 0 1047.2 0C989 0 931 0 872.8 0C814.7 0 756.3 0 698.2 0C640 0 582 0 523.8 0C465.7 0 407.3 0 349.2 0C291 0 233 0 174.8 0C116.7 0 58.3 0 29.2 0L0 0Z" fill="#d7f5f5"></path><path d="M0 276L29.2 290.5C58.3 305 116.7 334 174.8 339.3C233 344.7 291 326.3 349.2 328.2C407.3 330 465.7 352 523.8 343C582 334 640 294 698.2 299.5C756.3 305 814.7 356 872.8 348.7C931 341.3 989 275.7 1047.2 255.5C1105.3 235.3 1163.7 260.7 1221.8 295.3C1280 330 1338 374 1396.2 365C1454.3 356 1512.7 294 1570.8 266.7C1629 239.3 1687 246.7 1745.2 252.2C1803.3 257.7 1861.7 261.3 1890.8 263.2L1920 265L1920 76L1890.8 87C1861.7 98 1803.3 120 1745.2 118.2C1687 116.3 1629 90.7 1570.8 98C1512.7 105.3 1454.3 145.7 1396.2 151.2C1338 156.7 1280 127.3 1221.8 107.2C1163.7 87 1105.3 76 1047.2 81.5C989 87 931 109 872.8 112.7C814.7 116.3 756.3 101.7 698.2 105.3C640 109 582 131 523.8 136.5C465.7 142 407.3 131 349.2 136.5C291 142 233 164 174.8 173.2C116.7 182.3 58.3 178.7 29.2 176.8L0 175Z" fill="#bfeaef"></path><path d="M0 440L29.2 451C58.3 462 116.7 484 174.8 498.7C233 513.3 291 520.7 349.2 517C407.3 513.3 465.7 498.7 523.8 469.3C582 440 640 396 698.2 408.8C756.3 421.7 814.7 491.3 872.8 493.2C931 495 989 429 1047.2 401.5C1105.3 374 1163.7 385 1221.8 418C1280 451 1338 506 1396.2 507.8C1454.3 509.7 1512.7 458.3 1570.8 440C1629 421.7 1687 436.3 1745.2 447.3C1803.3 458.3 1861.7 465.7 1890.8 469.3L1920 473L1920 263L1890.8 261.2C1861.7 259.3 1803.3 255.7 1745.2 250.2C1687 244.7 1629 237.3 1570.8 264.7C1512.7 292 1454.3 354 1396.2 363C1338 372 1280 328 1221.8 293.3C1163.7 258.7 1105.3 233.3 1047.2 253.5C989 273.7 931 339.3 872.8 346.7C814.7 354 756.3 303 698.2 297.5C640 292 582 332 523.8 341C465.7 350 407.3 328 349.2 326.2C291 324.3 233 342.7 174.8 337.3C116.7 332 58.3 303 29.2 288.5L0 274Z" fill="#a8deeb"></path><path d="M0 781L29.2 804.7C58.3 828.3 116.7 875.7 174.8 888.3C233 901 291 879 349.2 880.8C407.3 882.7 465.7 908.3 523.8 882.8C582 857.3 640 780.7 698.2 782.5C756.3 784.3 814.7 864.7 872.8 884.8C931 905 989 865 1047.2 812C1105.3 759 1163.7 693 1221.8 689.3C1280 685.7 1338 744.3 1396.2 757.2C1454.3 770 1512.7 737 1570.8 744.2C1629 751.3 1687 798.7 1745.2 793.2C1803.3 787.7 1861.7 729.3 1890.8 700.2L1920 671L1920 471L1890.8 467.3C1861.7 463.7 1803.3 456.3 1745.2 445.3C1687 434.3 1629 419.7 1570.8 438C1512.7 456.3 1454.3 507.7 1396.2 505.8C1338 504 1280 449 1221.8 416C1163.7 383 1105.3 372 1047.2 399.5C989 427 931 493 872.8 491.2C814.7 489.3 756.3 419.7 698.2 406.8C640 394 582 438 523.8 467.3C465.7 496.7 407.3 511.3 349.2 515C291 518.7 233 511.3 174.8 496.7C116.7 482 58.3 460 29.2 449L0 438Z" fill="#92d1e9"></path><path d="M0 1099L29.2 1099C58.3 1099 116.7 1099 174.8 1099C233 1099 291 1099 349.2 1099C407.3 1099 465.7 1099 523.8 1099C582 1099 640 1099 698.2 1099C756.3 1099 814.7 1099 872.8 1099C931 1099 989 1099 1047.2 1099C1105.3 1099 1163.7 1099 1221.8 1099C1280 1099 1338 1099 1396.2 1099C1454.3 1099 1512.7 1099 1570.8 1099C1629 1099 1687 1099 1745.2 1099C1803.3 1099 1861.7 1099 1890.8 1099L1920 1099L1920 669L1890.8 698.2C1861.7 727.3 1803.3 785.7 1745.2 791.2C1687 796.7 1629 749.3 1570.8 742.2C1512.7 735 1454.3 768 1396.2 755.2C1338 742.3 1280 683.7 1221.8 687.3C1163.7 691 1105.3 757 1047.2 810C989 863 931 903 872.8 882.8C814.7 862.7 756.3 782.3 698.2 780.5C640 778.7 582 855.3 523.8 880.8C465.7 906.3 407.3 880.7 349.2 878.8C291 877 233 899 174.8 886.3C116.7 873.7 58.3 826.3 29.2 802.7L0 779Z" fill="#80c4e7"></path></svg>